<svg xmlns="http://www.w3.org/2000/svg" viewBox="0 0 101.73 40.01"><defs><style>.cls-1{fill:#f37665;}</style></defs><title>yAsset 5</title><g id="Layer_2" data-name="Layer 2"><g id="Layer_1-2" data-name="Layer 1"><path class="cls-1" d="M75.51.48h3.36V19.34H75.51Z"/><path class="cls-1" d="M99.17,4.53A3.1,3.1,0,0,0,97.75,3.4,5,5,0,0,0,95.87,3a4.76,4.76,0,0,0-1.13.13,3.08,3.08,0,0,0-1,.43,2.23,2.23,0,0,0-.71.76,2.19,2.19,0,0,0-.27,1.11,1.73,1.73,0,0,0,.67,1.47,6.53,6.53,0,0,0,1.65.88q1,.37,2.16.72a8.79,8.79,0,0,1,2.16,1,5.35,5.35,0,0,1,1.65,1.63,4.83,4.83,0,0,1,.67,2.69,5.92,5.92,0,0,1-.56,2.65,5.4,5.4,0,0,1-1.51,1.88,6.51,6.51,0,0,1-2.2,1.12,9.2,9.2,0,0,1-2.64.37,9.9,9.9,0,0,1-3.38-.59,6.51,6.51,0,0,1-2.8-2l2.53-2.45a4.23,4.23,0,0,0,1.61,1.45,4.53,4.53,0,0,0,2.12.52,4.44,4.44,0,0,0,1.17-.16,3.63,3.63,0,0,0,1.07-.48,2.5,2.5,0,0,0,.77-.81,2.17,2.17,0,0,0,.29-1.13,2,2,0,0,0-.67-1.6,5.9,5.9,0,0,0-1.65-.95q-1-.39-2.16-.73A9.06,9.06,0,0,1,91.58,10a5.24,5.24,0,0,1-1.65-1.6,4.76,4.76,0,0,1-.67-2.68,5.08,5.08,0,0,1,.6-2.53A5.48,5.48,0,0,1,91.43,1.4,6.87,6.87,0,0,1,93.66.35,9.56,9.56,0,0,1,96.22,0a9.33,9.33,0,0,1,2.89.45,6.7,6.7,0,0,1,2.52,1.49Z"/><path class="cls-1" d="M64.67,5.74A8.53,8.53,0,0,0,62.54,2.8a8.75,8.75,0,0,0-3.06-1.75,11.39,11.39,0,0,0-3.6-.57H51V3.53h.81v0h3.06a10.56,10.56,0,0,1,2.84.36A6.17,6.17,0,0,1,59.94,5a5.11,5.11,0,0,1,1.48,2A7.33,7.33,0,0,1,62,9.91a6.59,6.59,0,0,1-.6,2.94,5.31,5.31,0,0,1-1.64,2,7.07,7.07,0,0,1-2.44,1.12,11.9,11.9,0,0,1-3,.36H51.8v0H51v3.06h4.49A11.26,11.26,0,0,0,59,18.77,10.11,10.11,0,0,0,62.18,17a8.76,8.76,0,0,0,3.29-7.13A10.07,10.07,0,0,0,64.67,5.74Z"/><path class="cls-1" d="M51.1,37.08l4.49-4a8.4,8.4,0,0,0,.69-.7,1.34,1.34,0,0,0,.34-.91,1.11,1.11,0,0,0-.42-.92,1.56,1.56,0,0,0-1-.33,1.37,1.37,0,0,0-1.07.42,1.71,1.71,0,0,0-.43,1l-2.45-.18a4,4,0,0,1,.38-1.56,3.28,3.28,0,0,1,.87-1.1,3.64,3.64,0,0,1,1.27-.66,5.4,5.4,0,0,1,1.58-.22,4.77,4.77,0,0,1,1.47.22,3.42,3.42,0,0,1,1.19.65,3,3,0,0,1,.79,1.09,3.77,3.77,0,0,1,.29,1.52,4.08,4.08,0,0,1-.11,1,3.41,3.41,0,0,1-.32.82,3.74,3.74,0,0,1-.48.68,7.94,7.94,0,0,1-.6.6l-3.51,3h5.13v2.16H51.1Z"/><path class="cls-1" d="M64.75,33.9a12,12,0,0,1,.19-2.09,6.12,6.12,0,0,1,.67-1.93,4,4,0,0,1,1.31-1.41,4.39,4.39,0,0,1,4.25,0,4,4,0,0,1,1.31,1.41,6.13,6.13,0,0,1,.67,1.93,11.73,11.73,0,0,1,0,4.18,6.13,6.13,0,0,1-.67,1.93,4,4,0,0,1-1.31,1.41,4.39,4.39,0,0,1-4.25,0,4,4,0,0,1-1.31-1.41A6.11,6.11,0,0,1,64.94,36,12,12,0,0,1,64.75,33.9Zm2.45,0q0,.46,0,1.09a5.33,5.33,0,0,0,.22,1.22,2.6,2.6,0,0,0,.55,1,1.51,1.51,0,0,0,2.07,0,2.55,2.55,0,0,0,.56-1A5.36,5.36,0,0,0,70.85,35q0-.64,0-1.09t0-1.09a5.36,5.36,0,0,0-.22-1.22,2.55,2.55,0,0,0-.56-1,1.51,1.51,0,0,0-2.07,0,2.6,2.6,0,0,0-.55,1,5.33,5.33,0,0,0-.22,1.22Q67.2,33.44,67.2,33.9Z"/><path class="cls-1" d="M82.83,30.86l-2.32,2-1.39-1.6,3.77-3.18h2.29V39.68H82.83Z"/><path class="cls-1" d="M97,35.55l-.39.08a2.47,2.47,0,0,1-.41,0,3.66,3.66,0,0,1-1.49-.29,3.43,3.43,0,0,1-1.14-.8,3.58,3.58,0,0,1-.73-1.2,4.16,4.16,0,0,1-.26-1.48A3.77,3.77,0,0,1,93.84,29a4.12,4.12,0,0,1,1.36-.81,5.16,5.16,0,0,1,3.39,0A4.11,4.11,0,0,1,100,29a3.77,3.77,0,0,1,1.25,2.87A5.25,5.25,0,0,1,101.1,33a6,6,0,0,1-.3,1,6.25,6.25,0,0,1-.44.87l-.53.86-2.53,4h-3ZM95,32a1.76,1.76,0,0,0,.51,1.3,2,2,0,0,0,2.69,0,1.9,1.9,0,0,0,0-2.6,2,2,0,0,0-2.69,0A1.76,1.76,0,0,0,95,32Z"/><polygon class="cls-1" points="3.89 40.01 23.99 20.02 3.96 0.02 0 0.02 0 3.91 15.99 20.02 0 36.05 0 40.01 3.89 40.01"/><polygon class="cls-1" points="0 27.98 8 20.02 0 12.05 0 27.98"/><polygon class="cls-1" points="36.1 0.02 15.99 20.02 36.02 40.01 39.99 40.01 39.99 36.12 23.99 20.02 39.99 3.98 39.99 0.02 36.1 0.02"/><polygon class="cls-1" points="39.99 12.05 31.99 20.02 39.99 27.98 39.99 12.05"/><polygon class="cls-1" points="12.03 0.02 19.99 8.02 27.95 0.02 12.03 0.02"/><polygon class="cls-1" points="27.95 40.01 19.99 32.01 12.03 40.01 27.95 40.01"/></g></g></svg>