<svg xmlns="http://www.w3.org/2000/svg" viewBox="0 0 202.47 327.83"><defs><style>.cls-1{fill:#272726;}.cls-2{fill:#f37665;}</style></defs><title>yAsset 1</title><g id="Layer_2" data-name="Layer 2"><g id="Layer_1-2" data-name="Layer 1"><rect class="cls-1" width="202.47" height="327.83"/><path class="cls-2" d="M99,193.47h7.72v43.37H99Z"/><path class="cls-2" d="M153.37,202.78a7.13,7.13,0,0,0-3.28-2.6,11.46,11.46,0,0,0-4.32-.83,11,11,0,0,0-2.6.31,7.09,7.09,0,0,0-2.27,1,5.12,5.12,0,0,0-1.62,1.75,5,5,0,0,0-.61,2.54,4,4,0,0,0,1.53,3.37,15,15,0,0,0,3.8,2q2.27.86,5,1.65a20.2,20.2,0,0,1,5,2.21,12.29,12.29,0,0,1,3.8,3.74,11.11,11.11,0,0,1,1.53,6.19,13.6,13.6,0,0,1-1.29,6.09,12.41,12.41,0,0,1-3.46,4.32,15,15,0,0,1-5.05,2.57,21.15,21.15,0,0,1-6.06.86,22.76,22.76,0,0,1-7.78-1.35,15,15,0,0,1-6.43-4.53l5.82-5.64a9.73,9.73,0,0,0,3.71,3.34,10.41,10.41,0,0,0,4.87,1.19,10.21,10.21,0,0,0,2.7-.37,8.35,8.35,0,0,0,2.45-1.1,5.75,5.75,0,0,0,1.78-1.87,5,5,0,0,0,.67-2.6,4.53,4.53,0,0,0-1.53-3.68,13.56,13.56,0,0,0-3.8-2.17q-2.27-.89-5-1.68a20.83,20.83,0,0,1-5-2.17,12.06,12.06,0,0,1-3.8-3.68,11,11,0,0,1-1.53-6.16,11.68,11.68,0,0,1,1.38-5.82,12.61,12.61,0,0,1,3.61-4.07,15.79,15.79,0,0,1,5.11-2.42,22,22,0,0,1,5.88-.8,21.45,21.45,0,0,1,6.65,1,15.42,15.42,0,0,1,5.79,3.43Z"/><path class="cls-2" d="M74,205.57a19.62,19.62,0,0,0-4.9-6.77,20.12,20.12,0,0,0-7-4,26.18,26.18,0,0,0-8.27-1.32H42.6v7h1.86v0h7a24.29,24.29,0,0,1,6.52.83,14.19,14.19,0,0,1,5.15,2.57,11.74,11.74,0,0,1,3.4,4.56,16.84,16.84,0,0,1,1.23,6.74,15.15,15.15,0,0,1-1.38,6.77,12.21,12.21,0,0,1-3.77,4.53A16.26,16.26,0,0,1,57.05,229a27.35,27.35,0,0,1-6.83.83H44.46v-.05H42.6v7H52.92a25.88,25.88,0,0,0,8-1.32,23.25,23.25,0,0,0,7.41-4,20.14,20.14,0,0,0,7.56-16.39A23.14,23.14,0,0,0,74,205.57Z"/><path class="cls-2" d="M42.85,277.62l10.33-9.27a19.32,19.32,0,0,0,1.58-1.61,3.09,3.09,0,0,0,.79-2.1,2.55,2.55,0,0,0-1-2.12,3.59,3.59,0,0,0-2.29-.77,3.15,3.15,0,0,0-2.46,1,3.94,3.94,0,0,0-1,2.4l-5.63-.41a9.16,9.16,0,0,1,.86-3.59,7.53,7.53,0,0,1,2-2.53,8.37,8.37,0,0,1,2.91-1.52,12.41,12.41,0,0,1,3.62-.51,11,11,0,0,1,3.38.51,7.87,7.87,0,0,1,2.74,1.5,6.84,6.84,0,0,1,1.82,2.5,8.66,8.66,0,0,1,.66,3.49,9.38,9.38,0,0,1-.26,2.31,7.83,7.83,0,0,1-.73,1.88,8.6,8.6,0,0,1-1.11,1.56,18.26,18.26,0,0,1-1.39,1.39l-8.07,6.95H61.4v5H42.85Z"/><path class="cls-2" d="M74.24,270.3a27.52,27.52,0,0,1,.43-4.81,14.06,14.06,0,0,1,1.54-4.43,9.17,9.17,0,0,1,3-3.25,10.1,10.1,0,0,1,9.76,0,9.17,9.17,0,0,1,3,3.25,14.09,14.09,0,0,1,1.54,4.43,27,27,0,0,1,0,9.61A14.08,14.08,0,0,1,92,279.54a9.16,9.16,0,0,1-3,3.25,10.1,10.1,0,0,1-9.76,0,9.16,9.16,0,0,1-3-3.25,14.05,14.05,0,0,1-1.54-4.43A27.51,27.51,0,0,1,74.24,270.3Zm5.63,0q0,1.05.09,2.52a12.25,12.25,0,0,0,.51,2.82,6,6,0,0,0,1.26,2.29,3.47,3.47,0,0,0,4.75,0,5.86,5.86,0,0,0,1.28-2.29,12.32,12.32,0,0,0,.51-2.82q.09-1.46.09-2.52t-.09-2.52a12.31,12.31,0,0,0-.51-2.82,5.86,5.86,0,0,0-1.28-2.29,3.47,3.47,0,0,0-4.75,0A6,6,0,0,0,80.47,265a12.25,12.25,0,0,0-.51,2.82Q79.87,269.25,79.87,270.3Z"/><path class="cls-2" d="M115.8,263.32,110.47,268l-3.19-3.68,8.67-7.32h5.26v26.58H115.8Z"/><path class="cls-2" d="M148.42,274.09q-.45.11-.9.19a5.68,5.68,0,0,1-.94.07,8.41,8.41,0,0,1-3.42-.68,7.89,7.89,0,0,1-2.63-1.84,8.22,8.22,0,0,1-1.69-2.76,9.56,9.56,0,0,1-.6-3.4,8.67,8.67,0,0,1,2.87-6.61,9.48,9.48,0,0,1,3.14-1.86,11.87,11.87,0,0,1,7.79,0,9.44,9.44,0,0,1,3.15,1.86,8.67,8.67,0,0,1,2.87,6.61,12.06,12.06,0,0,1-.26,2.61,13.72,13.72,0,0,1-.69,2.23,14.38,14.38,0,0,1-1,2q-.58,1-1.22,2l-5.82,9.09h-6.87Zm-4.54-8.19a4,4,0,0,0,1.18,3,4.65,4.65,0,0,0,6.19,0,4.36,4.36,0,0,0,0-6,4.65,4.65,0,0,0-6.19,0A4,4,0,0,0,143.88,265.91Z"/><polygon class="cls-2" points="52.96 164.28 111.14 106.43 53.17 48.57 41.71 48.57 41.71 59.82 87.99 106.43 41.71 152.82 41.71 164.28 52.96 164.28"/><polygon class="cls-2" points="41.71 129.46 64.85 106.43 41.71 83.39 41.71 129.46"/><polygon class="cls-2" points="146.17 48.57 87.99 106.43 145.96 164.28 157.42 164.28 157.42 153.03 111.14 106.43 157.42 60.03 157.42 48.57 146.17 48.57"/><polygon class="cls-2" points="157.42 83.39 134.28 106.43 157.42 129.46 157.42 83.39"/><polygon class="cls-2" points="76.53 48.57 99.56 71.71 122.6 48.57 76.53 48.57"/><polygon class="cls-2" points="122.6 164.28 99.56 141.14 76.53 164.28 122.6 164.28"/></g></g></svg>