<svg xmlns="http://www.w3.org/2000/svg" viewBox="0 0 100.39 39.63"><defs><style>.cls-1{fill:#f37665;}</style></defs><title>yAsset 6</title><g id="Layer_2" data-name="Layer 2"><g id="Layer_1-2" data-name="Layer 1"><polygon class="cls-1" points="3.82 39.59 23.55 19.97 3.89 0.35 0 0.35 0 4.16 15.7 19.97 0 35.7 0 39.59 3.82 39.59"/><polygon class="cls-1" points="0 27.78 7.85 19.97 0 12.16 0 27.78"/><polygon class="cls-1" points="11.96 39.59 31.4 19.97 11.74 0.35 19.66 0.35 39.25 20.01 19.59 39.59 11.96 39.59"/><polygon class="cls-1" points="11.96 0.35 31.4 19.97 11.74 39.59 19.66 39.59 39.25 19.93 19.59 0.35 11.96 0.35"/><polygon class="cls-1" points="27.58 0.35 39.25 12.12 39.25 4.53 35.36 0.35 27.58 0.35"/><polygon class="cls-1" points="3.82 0.35 23.55 19.97 3.89 39.59 0 39.59 0 35.78 15.7 19.97 0 4.24 0 0.35 3.82 0.35"/><polygon class="cls-1" points="0 12.16 7.85 19.97 0 27.78 0 12.16"/><polygon class="cls-1" points="11.96 0.35 31.4 19.97 11.74 39.59 19.66 39.59 39.25 19.93 19.59 0.35 11.96 0.35"/><polygon class="cls-1" points="11.96 39.59 31.4 19.97 11.74 0.35 19.66 0.35 39.25 20.01 19.59 39.59 11.96 39.59"/><polygon class="cls-1" points="27.58 39.59 39.25 27.82 39.25 35.41 35.36 39.59 27.58 39.59"/><path class="cls-1" d="M99.94,17.17H98.21a11,11,0,0,1-2.95-.37,6.41,6.41,0,0,1-2.32-1.16,5.3,5.3,0,0,1-1.54-2.06,7.61,7.61,0,0,1-.55-3,6.84,6.84,0,0,1,.62-3.06,5.52,5.52,0,0,1,1.7-2,7.35,7.35,0,0,1,2.53-1.16,12.36,12.36,0,0,1,3.09-.37h1.14V.73H97.58a11.69,11.69,0,0,0-3.61.6,10.51,10.51,0,0,0-3.35,1.8,9.1,9.1,0,0,0-3.42,7.4A10.46,10.46,0,0,0,88,14.86a8.86,8.86,0,0,0,2.21,3.06,9.09,9.09,0,0,0,3.18,1.81,11.83,11.83,0,0,0,3.74.6h2.77Z"/><path class="cls-1" d="M63.23,17.52H61a11.69,11.69,0,0,1-3.14-.4,6.83,6.83,0,0,1-2.48-1.24,5.65,5.65,0,0,1-1.64-2.2,8.11,8.11,0,0,1-.59-3.24,7.29,7.29,0,0,1,.66-3.26A5.88,5.88,0,0,1,55.64,5a7.83,7.83,0,0,1,2.7-1.24,13.17,13.17,0,0,1,3.29-.4h1.61V0H60.33a12.46,12.46,0,0,0-3.85.63,11.2,11.2,0,0,0-3.57,1.92,9.7,9.7,0,0,0-3.64,7.89,11.14,11.14,0,0,0,.88,4.62,9.45,9.45,0,0,0,2.36,3.26,9.69,9.69,0,0,0,3.39,1.93,12.61,12.61,0,0,0,4,.63h3.35Z"/><path class="cls-1" d="M72.91,9.09V3h2.82V9.09h6.09v2.82H75.74V18H72.91V11.91H66.83V9.09Z"/><path class="cls-1" d="M50.27,36.83l4.49-4a8.4,8.4,0,0,0,.69-.7,1.34,1.34,0,0,0,.34-.91,1.11,1.11,0,0,0-.42-.92,1.56,1.56,0,0,0-1-.33,1.37,1.37,0,0,0-1.07.42,1.71,1.71,0,0,0-.43,1l-2.45-.18a4,4,0,0,1,.38-1.56,3.28,3.28,0,0,1,.87-1.1,3.64,3.64,0,0,1,1.27-.66,5.4,5.4,0,0,1,1.58-.22,4.77,4.77,0,0,1,1.47.22,3.42,3.42,0,0,1,1.19.65A3,3,0,0,1,58,29.63a3.77,3.77,0,0,1,.29,1.52,4.08,4.08,0,0,1-.11,1,3.41,3.41,0,0,1-.32.82,3.74,3.74,0,0,1-.48.68,7.94,7.94,0,0,1-.6.6l-3.51,3h5.13v2.16H50.27Z"/><path class="cls-1" d="M63.93,33.65a12,12,0,0,1,.19-2.09,6.12,6.12,0,0,1,.67-1.93,4,4,0,0,1,1.31-1.41,4.39,4.39,0,0,1,4.25,0,4,4,0,0,1,1.31,1.41,6.13,6.13,0,0,1,.67,1.93,11.73,11.73,0,0,1,0,4.18,6.13,6.13,0,0,1-.67,1.93,4,4,0,0,1-1.31,1.41,4.39,4.39,0,0,1-4.25,0,4,4,0,0,1-1.31-1.41,6.11,6.11,0,0,1-.67-1.93A12,12,0,0,1,63.93,33.65Zm2.45,0q0,.46,0,1.09A5.33,5.33,0,0,0,66.64,36a2.6,2.6,0,0,0,.55,1,1.51,1.51,0,0,0,2.07,0,2.55,2.55,0,0,0,.56-1A5.36,5.36,0,0,0,70,34.74q0-.64,0-1.09t0-1.09a5.36,5.36,0,0,0-.22-1.22,2.55,2.55,0,0,0-.56-1,1.51,1.51,0,0,0-2.07,0,2.6,2.6,0,0,0-.55,1,5.33,5.33,0,0,0-.22,1.22Q66.37,33.19,66.37,33.65Z"/><path class="cls-1" d="M82,30.61l-2.32,2-1.39-1.6,3.77-3.18h2.29V39.43H82Z"/><path class="cls-1" d="M96.19,35.3l-.39.08a2.47,2.47,0,0,1-.41,0,3.66,3.66,0,0,1-1.49-.29,3.43,3.43,0,0,1-1.14-.8,3.58,3.58,0,0,1-.73-1.2,4.16,4.16,0,0,1-.26-1.48A3.77,3.77,0,0,1,93,28.77,4.12,4.12,0,0,1,94.38,28a5.16,5.16,0,0,1,3.39,0,4.11,4.11,0,0,1,1.37.81,3.77,3.77,0,0,1,1.25,2.87,5.25,5.25,0,0,1-.11,1.13,6,6,0,0,1-.3,1,6.25,6.25,0,0,1-.44.87l-.53.86-2.53,4h-3Zm-2-3.56a1.76,1.76,0,0,0,.51,1.3,2,2,0,0,0,2.69,0,1.9,1.9,0,0,0,0-2.6,2,2,0,0,0-2.69,0A1.76,1.76,0,0,0,94.22,31.74Z"/></g></g></svg>